<?xml version="1.0" encoding="UTF-8"?>
<svg id="Layer_2" data-name="Layer 2" xmlns="http://www.w3.org/2000/svg" viewBox="0 0 168 165.65">
  <defs>
    <style>
      .cls-1 {
        stroke-width: 0px;
      }
    </style>
  </defs>
  <g id="Layer_4" data-name="Layer 4">
    <g>
      <path class="cls-1" d="m144.36,0v4.57c0,1.28-.05,3.62-.27,6.76-.25,3.29-.69,7.46-1.5,12.2-.93,5.95-2.51,13.07-5.13,20.7-.95,2.77-2.04,5.6-3.29,8.47-3.24,7.45-7.55,15.1-13.25,22.37-.18.19-.28.38-.46.56-1.87,2.15-5.33,1.87-7.19-.28-2.15-2.24-5.23-3.73-8.69-3.73-1.31,0-2.71.28-4.01.65-.1,0-.19.1-.28.1-1.4.56-2.52,1.49-3.74,2.24-.56.37-1.21.65-1.87.56-.56-.1-1.02-.38-1.49-.66-.65-.74-1.03-1.58-1.87-2.24-.84-1.02-1.96-1.77-3.08-2.42-.84-.47-1.68-.85-2.61-1.13-.19-.09-.38-.09-.56-.18-.75-.28-1.68-.47-2.53-.66-.74-.09-1.4-.09-2.24-.09-2.24,0-4.48.56-6.44,1.4-.65.37-1.4.75-2.15,1.31-.18.09-.28.19-.56.28-.37.37-.74.75-1.21.93-.65.47-1.31.66-2.05.66-.29,0-.47-.1-.85-.1-1.02-.28-1.96-1.02-2.52-1.96-.18-.18-.28-.37-.37-.56-2.24-4.39-6.07-8.12-10.36-10.74-2.62-1.52-5.48-2.66-8.46-3.35-2.12-.5-4.3-.76-6.49-.76-12.8,0-23.56,8.11-27.32,19.21-.94,2.75-1.44,5.67-1.44,8.71,0,.75.03,1.5.1,2.23-3.56,1.66-6.97,3.63-10.18,5.88v-45.4c3.82-2.59,8.06-4.4,12.8-5.4,3.52-.74,3.21-4.51.73-5.59.47-.27.94-.55,1.41-.87,1.02-.7,1.29-1.48,1.13-2.21,1.18-.87,1.54-2.56.59-3.79-1.29-1.66-3.8-1.49-5.52-.84-2.07.8-4.15,1.6-6.22,2.4-1.47.56-1.96,1.44-1.87,2.33-.6.15-1.19.33-1.76.57,1.9-7.57,5.82-14.33,11.13-19.71.38-.37.76-.74,1.15-1.09C21.21,4.31,31.38,0,42.49,0s21.33,4.29,28.92,11.33c1.02.93,1.98,1.91,2.9,2.95-2.02-.02-4.05-.06-6.07-.09-1.95-.03-2.72,2.8-1.99,4.57-5.35.99-10.6,2.73-15.6,5.25-2.52,1.27-1.92,7.09,1.17,5.54,9.05-4.56,19.07-6.47,28.94-5.65,2.76,5.64,4.31,11.98,4.31,18.68v7.66c5.41-6.45,9.09-14.21,11.46-22.28.17-.57.33-1.14.49-1.72.39-1.46.73-2.92,1.03-4.37.37-1.72.68-3.44.93-5.16,0-.04,0-.11.02-.19.1-.77.42-3.17.69-5.19h2.47c-.77-.3-1.56-.57-2.36-.8.17-1.27.3-2.22.3-2.22L144.36,0Z"/>
      <path class="cls-1" d="m144.16,155.33c-.22-3.41-.67-7.95-1.57-13.21-.54-3.46-1.3-7.33-2.35-11.47-.17-.66-.34-1.31-.53-1.98h0c-1.28-4.7-2.94-9.69-5.12-14.8-1.67-3.95-3.64-7.97-5.98-11.97-2.22-3.83-4.77-7.63-7.69-11.33-.18-.28-.46-.56-.65-.84-1.96-1.77-5.23-1.49-7,.56-2.15,2.43-5.23,3.93-8.69,3.93-1.4,0-2.8-.19-4.11-.75-.37-.09-.56-.19-.74-.37-.75-.28-1.5-.56-2.06-1.12-.65-.56-1.21-1.12-2.15-1.31-.46-.28-1.21-.1-1.77.19-.06.03-.11.07-.16.1-.52.35-.71.79-1.05,1.3-.28.46-.84,1.02-1.31,1.3-.93,1.03-1.96,1.78-3.08,2.43-.84.37-1.59.75-2.52,1.03-.19.09-.38.09-.56.18-.45.17-.93.27-1.45.37-.34.06-.7.12-1.08.19-.74.19-1.4.19-2.24.19-3.08,0-5.97-1.03-8.59-2.71-.09,0-.09-.18-.18-.18-.56-.28-1.03-.75-1.59-1.12-.09-.1-.19-.1-.28-.19-.47-.28-1.21-.37-1.87-.37h-.28c-.49.06-1.02.16-1.51.38-.26.12-.51.27-.73.46-.37.37-.56.65-.75,1.12-.18.28-.37.56-.56.84-.18.56-.65,1.12-1.02,1.77-.66,1.03-1.5,2.15-2.43,3.08-.37.4-.75.81-1.15,1.2-1.04,1.06-2.19,2.08-3.41,2.97-.52.38-1.05.73-1.6,1.06-1.85,1.29-4.04,2.29-6.27,3.02-.37.12-.74.24-1.11.34-2.62.75-5.42,1.22-8.13,1.22-10.07,0-18.88-4.98-24.01-12.55-5.27,2-10.27,4.73-14.83,8.14v16.73c0,12.85,5.72,24.38,14.76,32.17,7.44,6.43,17.14,10.32,27.73,10.32s20.22-3.84,27.7-10.17c-.1-.01-.2-.02-.3-.03-.14-.02-.26-.06-.37-.12h.86c.78-.68,1.54-1.38,2.27-2.1,2.09-2.11,3.97-4.44,5.59-6.95,1.57-2.43,2.91-5.02,3.96-7.76.56-1.41,1.03-2.86,1.43-4.35.21-.8.41-1.61.58-2.43.25-1.26.46-2.55.6-3.85.17-1.55.26-3.13.26-4.73v-7.75c.74.84,1.4,1.78,2.05,2.62,1.95,2.7,3.64,5.56,5.09,8.54.76-.31,1.52-.62,2.28-.94.85-1.24,1.56-2.54,2.06-3.92.47-1.56.76-3.21.85-4.91.09-1.86,3.8-2.22,3.82-.14.02,1.87-.31,3.61-.89,5.25-.26.89-.58,1.76-.95,2.59.14-.06.28-.12.41-.18.52-.22.94,0,1.22.37.88-.53,1.41-.05,1.6.72.42.7.37,1.9-.41,2.65-.2.2-.41.4-.62.6,0,.57-.2,1.18-.62,1.64-1.62,1.74-3.44,3.22-5.41,4.42.68,2.01,1.28,4.05,1.8,6.1,7.86-3.93,14.77-9.75,19.88-16.91.61-.85,1.77-1.08,2.53-.37.83.76.76,2.2.27,3.13-1.43,2.76-3.18,5.34-5.17,7.72.39,1,.06,2.12-.53,2.96-.52.74-1.09,1.44-1.69,2.12.88,3.54-1.92,6.17-4.9,7.44-2.85,1.23-5.75,2.35-8.64,3.49.26,1.75.52,3.59.71,4.93.17,1.2.29,2.01.29,2.01l44.26,8.31v-4.67c0-1.12-.04-3.06-.2-5.65Zm-85.18-17.31c-.88.45-1.77.9-2.65,1.35-1.9,1.89-4.41,3.14-7.22,3.33-1.05.07-1.72-.27-2.09-.84-3.25.38-3.51-5.1-.3-6.83,2.9-1.55,5.8-3.11,8.7-4.67,1.65-.88,3.3-.4,3.97.88,2.6.46,2.6,5.24-.41,6.78Z"/>
      <path class="cls-1" d="m168,82.85c-1.76,2.26-3.4,4.54-4.92,6.85-1.95,2.94-3.71,5.91-5.29,8.88h-.01c-3.26,6.05-5.81,12.1-7.8,17.88-1.54-4.46-3.41-9.08-5.69-13.74-1.28-2.64-2.7-5.3-4.26-7.95-2.35-4.02-5.02-8.02-8.07-11.92,1.52-1.96,2.94-3.93,4.27-5.93h0c.79.65,1.82,1.07,2.85.73,1.02-.35,1.96-1.14,2.4-2.13.03-.07.07-.14.1-.22.19-.12.39-.24.58-.37.95-.61,1.63-1.8,1.94-2.85.33-1.16.36-2.73-.1-3.87-.3-.74-.73-1.54-1.38-2.05,3.02-5.79,5.41-11.56,7.26-17.11,2.19,6.36,5.06,13.07,8.82,19.77h0c2.49,4.47,5.37,8.94,8.72,13.28.18.25.38.5.57.75Z"/>
    </g>
  </g>
</svg>